<svg width="72" height="72" viewBox="0 0 72 72" fill="none" xmlns="http://www.w3.org/2000/svg">
<circle cx="36" cy="36" r="36" fill="#469BA7"/>
<path d="M20.375 34.9116L37.0417 18.2449C38.9756 16.311 41.5985 15.2246 44.3334 15.2246C47.0683 15.2246 49.6912 16.311 51.625 18.2449C53.5589 20.1788 54.6453 22.8017 54.6453 25.5366C54.6453 28.2715 53.5589 30.8944 51.625 32.8282L34.9584 49.4949C33.0245 51.4288 30.4016 52.5152 27.6667 52.5152C24.9318 52.5152 22.3089 51.4288 20.375 49.4949C18.4412 47.561 17.3547 44.9382 17.3547 42.2032C17.3547 39.4683 18.4412 36.8455 20.375 34.9116Z" stroke="white" stroke-width="2" stroke-linecap="round" stroke-linejoin="round"/>
<path d="M28.7085 26.5781L43.2918 41.1615" stroke="white" stroke-width="2" stroke-linecap="round" stroke-linejoin="round"/>
</svg>
