<svg width="108" height="98" viewBox="0 0 108 98" fill="none" xmlns="http://www.w3.org/2000/svg">
<g filter="url(#filter0_d)">
<path fill-rule="evenodd" clip-rule="evenodd" d="M16.476 12.834H68.7582C75.493 12.834 80.9525 18.2756 80.9525 24.9882V42.8262C93.5256 42.8262 103.718 52.9852 103.718 65.5169C103.718 78.0487 93.5256 88.2077 80.9525 88.2077C70.9464 88.2077 62.448 81.7735 59.3949 72.8297H16.476C9.74131 72.8297 4.28174 67.3881 4.28174 60.6756V24.9882C4.28174 18.2756 9.74131 12.834 16.476 12.834Z" fill="#FFFF00"/>
</g>
<path d="M68.8418 12.0957H16.2634C9.49051 12.0957 4 17.5862 4 24.3591V60.3672C4 67.1401 9.49051 72.6306 16.2634 72.6306H68.8418C75.6147 72.6306 81.1052 67.1401 81.1052 60.3672V24.3591C81.1052 17.5862 75.6147 12.0957 68.8418 12.0957Z" fill="white" stroke="black" stroke-width="0.5" stroke-miterlimit="10"/>
<path d="M57.4851 37.8928H46.9898V27.4202C46.9898 27.2999 46.942 27.1846 46.8569 27.0996C46.7719 27.0146 46.6566 26.9668 46.5364 26.9668H38.5233C38.402 26.9668 38.2855 27.0141 38.1986 27.0989C38.1118 27.1836 38.0615 27.2989 38.0586 27.4202V37.8928H27.5973C27.4741 37.8928 27.3559 37.9417 27.2687 38.0289C27.1816 38.116 27.1326 38.2342 27.1326 38.3575V46.3593C27.1326 46.4825 27.1816 46.6007 27.2687 46.6879C27.3559 46.775 27.4741 46.824 27.5973 46.824H38.0586V57.2966C38.0614 57.4189 38.1114 57.5354 38.1979 57.622C38.2844 57.7085 38.401 57.7584 38.5233 57.7613H46.5364C46.6576 57.7583 46.773 57.708 46.8577 57.6212C46.9424 57.5344 46.9898 57.4179 46.9898 57.2966V46.824H57.4624C57.5856 46.824 57.7038 46.775 57.791 46.6879C57.8781 46.6007 57.9271 46.4825 57.9271 46.3593V38.3575C57.9272 38.238 57.8814 38.1232 57.7991 38.0366C57.7168 37.9501 57.6043 37.8986 57.4851 37.8928Z" fill="#469BA7" stroke="black" stroke-width="0.5" stroke-miterlimit="10"/>
<path d="M81.1054 88.1488C93.7498 88.1488 104 77.8984 104 65.2541C104 52.6097 93.7498 42.3594 81.1054 42.3594C68.461 42.3594 58.2107 52.6097 58.2107 65.2541C58.2107 77.8984 68.461 88.1488 81.1054 88.1488Z" fill="#FFF500" stroke="black" stroke-width="0.5" stroke-miterlimit="10"/>
<path d="M81.8988 52.5938H80.312C79.8112 52.5938 79.4053 52.9997 79.4053 53.5005V69.6174C79.4053 70.1182 79.8112 70.5241 80.312 70.5241H81.8988C82.3995 70.5241 82.8055 70.1182 82.8055 69.6174V53.5005C82.8055 52.9997 82.3995 52.5938 81.8988 52.5938Z" fill="black"/>
<path d="M81.1051 77.9139C82.2506 77.9139 83.1793 76.9853 83.1793 75.8397C83.1793 74.6942 82.2506 73.7656 81.1051 73.7656C79.9596 73.7656 79.031 74.6942 79.031 75.8397C79.031 76.9853 79.9596 77.9139 81.1051 77.9139Z" fill="black"/>
<path d="M62.8576 12.1527H60.5908V10.3166C60.5878 8.44776 59.8441 6.65636 58.5227 5.33492C57.2012 4.01349 55.4099 3.2698 53.5411 3.2668H31.5304C29.6616 3.2698 27.8702 4.01349 26.5488 5.33492C25.2274 6.65636 24.4837 8.44776 24.4807 10.3166V12.1527H22.2139V10.3166C22.2169 7.84657 23.1993 5.47859 24.9459 3.73205C26.6924 1.98551 29.0604 1.003 31.5304 1H53.575C56.045 1.003 58.413 1.98551 60.1595 3.73205C61.9061 5.47859 62.8886 7.84657 62.8916 10.3166L62.8576 12.1527Z" fill="white" stroke="black" stroke-width="0.5" stroke-miterlimit="10"/>
<defs>
<filter id="filter0_d" x="0.0317383" y="12.584" width="107.936" height="84.8737" filterUnits="userSpaceOnUse" color-interpolation-filters="sRGB">
<feFlood flood-opacity="0" result="BackgroundImageFix"/>
<feColorMatrix in="SourceAlpha" type="matrix" values="0 0 0 0 0 0 0 0 0 0 0 0 0 0 0 0 0 0 127 0" result="hardAlpha"/>
<feOffset dy="5"/>
<feGaussianBlur stdDeviation="2"/>
<feComposite in2="hardAlpha" operator="out"/>
<feColorMatrix type="matrix" values="0 0 0 0 0 0 0 0 0 0 0 0 0 0 0 0 0 0 0.1 0"/>
<feBlend mode="normal" in2="BackgroundImageFix" result="effect1_dropShadow"/>
<feBlend mode="normal" in="SourceGraphic" in2="effect1_dropShadow" result="shape"/>
</filter>
</defs>
</svg>

