<svg width="24" height="24" viewBox="0 0 24 24" fill="none" xmlns="http://www.w3.org/2000/svg">
<line x1="5.5" y1="5.81885" x2="19.5" y2="5.81885" stroke="#333333" stroke-linecap="round"/>
<line x1="5.5" y1="11.6128" x2="19.5" y2="11.6128" stroke="#333333" stroke-linecap="round"/>
<line x1="5.5" y1="17.4087" x2="19.5" y2="17.4087" stroke="#333333" stroke-linecap="round"/>
<path d="M7.079 5.93171C7.079 5.15109 7.7286 4.50002 8.55268 4.50002C9.37677 4.50002 10.0264 5.15109 10.0264 5.93171C10.0264 6.71233 9.37677 7.3634 8.55268 7.3634C7.7286 7.3634 7.079 6.71233 7.079 5.93171Z" fill="#59C6B2" stroke="#333333"/>
<path d="M14.9738 11.7276C14.9738 10.947 15.6234 10.2959 16.4475 10.2959C17.2715 10.2959 17.9211 10.947 17.9211 11.7276C17.9211 12.5082 17.2715 13.1593 16.4475 13.1593C15.6234 13.1593 14.9738 12.5082 14.9738 11.7276Z" fill="#59C6B2" stroke="#333333"/>
<path d="M9.44741 17.5216C9.44741 16.7409 10.097 16.0899 10.9211 16.0899C11.7452 16.0899 12.3948 16.7409 12.3948 17.5216C12.3948 18.3022 11.7452 18.9532 10.9211 18.9532C10.097 18.9532 9.44741 18.3022 9.44741 17.5216Z" fill="#59C6B2" stroke="black"/>
</svg>
