<svg width="20" height="22" viewBox="0 0 20 22" fill="none" xmlns="http://www.w3.org/2000/svg">
<path d="M18.9301 6.50739L11.2201 1.29739C10.9227 1.10333 10.5752 1 10.2201 1C9.86498 1 9.51753 1.10333 9.22011 1.29739L1.45012 6.50739C1.30972 6.59983 1.19488 6.72617 1.11623 6.87474C1.03757 7.0233 0.997627 7.1893 1.00011 7.35739V20.5374C1.00011 20.67 1.05279 20.7972 1.14656 20.8909C1.24033 20.9847 1.3675 21.0374 1.50011 21.0374H7.24013V13.2574C7.24013 13.1248 7.29279 12.9976 7.38655 12.9038C7.48032 12.8101 7.60752 12.7574 7.74013 12.7574H12.6401C12.7727 12.7574 12.8999 12.8101 12.9937 12.9038C13.0874 12.9976 13.1401 13.1248 13.1401 13.2574V21.0274H18.8801C19.0127 21.0274 19.1399 20.9747 19.2337 20.8809C19.3274 20.7872 19.3801 20.66 19.3801 20.5274V7.35739C19.3826 7.1893 19.3427 7.0233 19.264 6.87474C19.1854 6.72617 19.0705 6.59983 18.9301 6.50739Z" 
    stroke="#469BA7" stroke-linecap="round" stroke-linejoin="round"/>
</svg>
