<svg width="20" height="22" viewBox="0 0 20 22" fill="none" xmlns="http://www.w3.org/2000/svg">
<path d="M5.14241 5.83002H2C1.73478 5.83002 1.48043 5.93537 1.29289 6.12291C1.10536 6.31045 1 6.5648 1 6.83002V21.5H7.55V16.2C7.55256 16.0682 7.60606 15.9425 7.69928 15.8493C7.79249 15.7561 7.91819 15.7026 8.05 15.7H12.16C12.2918 15.7026 12.4175 15.7561 12.5107 15.8493C12.6039 15.9425 12.6574 16.0682 12.66 16.2V21.5H19.21V6.83002C19.21 6.5648 19.1046 6.31045 18.9171 6.12291C18.7296 5.93537 18.4752 5.83002 18.21 5.83002H15.224" stroke="#469BA7" stroke-width="0.8" stroke-linecap="round" stroke-linejoin="round"/>
<path d="M13.84 1H6.37002C5.76251 1 5.27002 1.49249 5.27002 2.1V9.57C5.27002 10.1775 5.76251 10.67 6.37002 10.67H13.84C14.4475 10.67 14.94 10.1775 14.94 9.57V2.1C14.94 1.49249 14.4475 1 13.84 1Z" stroke="#469BA7" stroke-width="0.8" stroke-linecap="round" stroke-linejoin="round"/>
<path d="M12.91 5.83002H7.31" stroke="#469BA7" stroke-width="2" stroke-miterlimit="10"/>
<path d="M10.11 8.63998V3.03998" stroke="#469BA7" stroke-width="2" stroke-miterlimit="10"/>
</svg>
