<svg width="24" height="24" viewBox="0 0 24 24" fill="none" xmlns="http://www.w3.org/2000/svg">
<path d="M11.5964 6.39731C11.6906 6.52606 11.8405 6.60217 12 6.60217C12.1595 6.60217 12.3094 6.52606 12.4036 6.39731C13.306 5.16333 14.8014 4.35181 16.5 4.35181C19.2794 4.35181 21.5 6.51682 21.5 9.14813C21.5 11.597 19.9882 14.0028 17.9639 15.9714C16.0073 17.8742 13.6577 19.2836 12 19.8525C10.3423 19.2836 7.9927 17.8742 6.03609 15.9714C4.01183 14.0028 2.5 11.597 2.5 9.14813C2.5 6.51682 4.72063 4.35181 7.5 4.35181C9.19864 4.35181 10.694 5.16333 11.5964 6.39731Z" stroke="#333333" stroke-linejoin="round"/>
</svg>
