<svg width="14" height="13" viewBox="0 0 14 13" fill="none" xmlns="http://www.w3.org/2000/svg">
<path d="M6.59111 2.51256C6.68476 2.64556 6.83726 2.72468 6.99992 2.72468C7.16258 2.72468 7.31507 2.64556 7.40873 2.51256C7.98266 1.69755 8.92933 1.16675 9.99992 1.16675C11.7488 1.16675 13.1666 2.58452 13.1666 4.33341C13.1666 5.97469 12.1887 7.60456 10.853 8.95353C9.5855 10.2335 8.07259 11.1819 6.99992 11.5789C5.92724 11.1819 4.41434 10.2335 3.14687 8.95353C1.8111 7.60456 0.833252 5.97469 0.833252 4.33341C0.833252 2.58452 2.25102 1.16675 3.99992 1.16675C5.0705 1.16675 6.01718 1.69755 6.59111 2.51256Z" fill="#EB5063" stroke="#8B8B8B" stroke-linejoin="round"/>
</svg>
