<svg width="111" height="79" viewBox="0 0 111 79" fill="none" xmlns="http://www.w3.org/2000/svg">
<path d="M84.9216 49H26.0067L45.1221 37.7469L82.4836 37.4436L84.9216 49Z" fill="#898C90"/>
<path d="M39.9565 0L22 14.577L39.4317 24.3713L39.9565 0Z" fill="#CBD0D4"/>
<path d="M78.2364 49H26.0067L45.1221 37.7469L64.467 36.3224L78.2364 49Z" fill="#A2A7AC"/>
<path d="M91 20.4753L84.9216 49L71.4474 41.6371L91 20.4753Z" fill="#CBD0D4"/>
<path d="M22 14.577L26.0067 49L64.2429 38.113L22 14.577Z" fill="#D1D3D4"/>
<path d="M22 14.5598L26.0067 48.9828L76.4599 37.2091L22 14.5598Z" fill="#999C9F"/>
<path d="M22 14.5598L26.0067 48.9828L65.2924 39.8121L22 14.5598Z" fill="#888C90"/>
<path d="M22 14.577L26.0067 49L67.1127 37.2949L22 14.577Z" fill="#B6BBBF"/>
<path d="M38.0926 21.2705L37.4803 28.2672L71.9284 47.7643L91 20.4753L40.1697 22.1458L38.0926 21.2705Z" fill="#999C9F"/>
<path d="M39.9565 0L38.2675 27.083L72.2345 45.8821L91 20.4753L39.9565 0Z" fill="#F2F5F7"/>
<path d="M73.8688 44.9782L73.3222 44.4118L74.2405 43.1646L74.891 43.5193L73.8688 44.9782Z" fill="#75767A"/>
<path d="M60.0448 41.0364L60.094 41.0307L62.4663 40.4758L60.2361 39.2401L58.0113 39.8865" fill="#75767A"/>
<g clip-path="url(#clip0)">
<path d="M71.6569 57.2312H67.3701V78.1066H71.6569V57.2312Z" fill="black" stroke="white" stroke-width="0.0132" stroke-miterlimit="10"/>
<path d="M93.0577 57.2312H86.8213H82.5346H76.4699V61.0612H82.5346V78.1066H86.8213V61.0612H93.0577V57.2312Z" fill="black" stroke="white" stroke-width="0.0132" stroke-miterlimit="10"/>
<path d="M10.9883 74.7046C7.44368 74.7046 4.56921 71.5999 4.56921 67.7754C4.56921 63.9454 7.44368 60.8463 10.9883 60.8463C13.104 60.8463 14.976 61.9507 16.1446 63.6542L19.5342 61.2419C17.5459 58.6702 14.4111 57.0108 10.8775 57.0108C4.87383 57.0053 0.00549698 61.8024 0.00549698 67.7205C0.00549698 73.6386 4.87383 78.4357 10.8831 78.4357C14.5717 78.4357 17.8283 76.6278 19.7945 73.8639L16.3939 71.512C15.2474 73.4297 13.2536 74.7046 10.9883 74.7046Z" fill="black" stroke="white" stroke-width="0.0132" stroke-miterlimit="10"/>
<path d="M53.1751 57.2311C53.1751 57.2311 53.092 57.0992 53.0144 57.0717H52.9923H52.9701C52.8926 57.0992 52.8095 57.2311 52.8095 57.2311L43.5104 78.1065H47.692L48.7221 75.8646H52.9923H57.2625L58.2926 78.1065H62.4742L53.1751 57.2311ZM52.9923 72.3478H49.9461L52.9923 64.8911L56.0385 72.3478H52.9923Z" fill="black" stroke="white" stroke-width="0.0132" stroke-miterlimit="10"/>
<path d="M35.9171 71.65C35.9171 71.65 40.0045 70.051 40.0045 65.0066C40.0045 65.0066 40.7135 57.3137 31.154 57.3137H24.8125V78.1066H28.9663V72.9579H31.8297L35.3024 78.1066H40.2925L35.9171 71.65ZM35.6568 65.1715C35.6568 69.5784 31.287 69.2652 31.287 69.2652H29.0051V61.0777H31.1596C36.1165 61.0777 35.6568 65.1715 35.6568 65.1715Z" fill="black" stroke="white" stroke-width="0.0132" stroke-miterlimit="10"/>
<path d="M106.256 62.644L109.507 60.4405C109.507 60.4405 107.74 57.0282 103.525 57.0282C103.525 57.0282 97.2226 56.7754 97.0897 62.644C97.0897 62.644 96.9623 66.3092 99.8312 67.9082C99.8312 67.9082 102.174 69.3149 104.428 70.0842C104.428 70.0842 106.522 70.914 106.549 72.48C106.583 74.0461 105.453 74.6066 103.824 74.6505C103.824 74.6505 100.994 74.9253 99.1888 72.1613L95.8214 74.0571C95.8214 74.0571 97.278 78.4201 103.697 78.4201C103.697 78.4201 110.864 78.5025 110.864 72.6119C110.864 72.6119 111.529 68.5236 106.034 66.2048C106.034 66.2048 101.271 64.6277 101.271 62.6935C101.271 62.6935 101.166 60.7373 103.525 60.7373C103.52 60.7263 105.132 60.5999 106.256 62.644Z" fill="black" stroke="white" stroke-width="0.0132" stroke-miterlimit="10"/>
</g>
<defs>
<clipPath id="clip0">
<rect width="111" height="22" fill="white" transform="translate(0 57)"/>
</clipPath>
</defs>
</svg>
