<svg width="606" height="120" viewBox="0 0 606 120" fill="none" xmlns="http://www.w3.org/2000/svg">
<path d="M60.9368 119.628C49.4676 119.628 39.0703 117.094 29.7449 112.027C20.5267 106.85 13.2378 99.745 7.87837 90.7123C2.62612 81.5695 0 71.27 0 59.814C0 48.3579 2.62612 38.1135 7.87837 29.0808C13.2378 19.938 20.5267 12.833 29.7449 7.7659C39.0703 2.58863 49.5212 0 61.0976 0C70.8518 0 79.6413 1.76247 87.4661 5.28742C95.398 8.81237 102.044 13.8795 107.403 20.4888L90.6817 36.351C83.0713 27.3183 73.6387 22.802 62.3839 22.802C55.4166 22.802 49.1997 24.3992 43.733 27.5937C38.2664 30.6781 33.9788 35.0292 30.8704 40.6471C27.8691 46.2649 26.3684 52.6539 26.3684 59.814C26.3684 66.974 27.8691 73.363 30.8704 78.9809C33.9788 84.5987 38.2664 89.0049 43.733 92.1994C49.1997 95.2837 55.4166 96.8259 62.3839 96.8259C73.6387 96.8259 83.0713 92.2545 90.6817 83.1116L107.403 98.9739C102.044 105.693 95.398 110.816 87.4661 114.34C79.5341 117.865 70.691 119.628 60.9368 119.628Z" fill="black"/>
<path d="M194.29 117.645L172.584 85.4249H171.298H148.628V117.645H122.581V1.98278H171.298C181.267 1.98278 189.895 3.69018 197.184 7.10497C204.58 10.5198 210.261 15.3666 214.227 21.6454C218.193 27.9242 220.176 35.3596 220.176 43.9517C220.176 52.5437 218.14 59.9792 214.066 66.258C210.101 72.4266 204.419 77.1633 197.023 80.4679L222.266 117.645H194.29ZM193.808 43.9517C193.808 37.4526 191.771 32.4956 187.698 29.0808C183.625 25.5559 177.676 23.7934 169.851 23.7934H148.628V64.11H169.851C177.676 64.11 183.625 62.3475 187.698 58.8226C191.771 55.2976 193.808 50.3407 193.808 43.9517Z" fill="black"/>
<path d="M318.954 92.8603H266.699L256.731 117.645H230.041L280.205 1.98278H305.93L356.255 117.645H328.922L318.954 92.8603ZM310.754 72.5368L292.907 28.2547L275.06 72.5368H310.754Z" fill="black"/>
<path d="M365.52 1.98278H391.567V117.645H365.52V1.98278Z" fill="black"/>
<path d="M443.199 23.7934H407.183V1.98278H505.261V23.7934H469.246V117.645H443.199V23.7934Z" fill="black"/>
<path d="M557.864 119.628C548.967 119.628 540.338 118.416 531.978 115.993C523.724 113.459 517.078 110.21 512.04 106.244L520.883 86.0858C525.707 89.7209 531.442 92.64 538.087 94.8431C544.733 97.0462 551.379 98.1478 558.024 98.1478C565.42 98.1478 570.887 97.0462 574.424 94.8431C577.962 92.5299 579.73 89.5006 579.73 85.7554C579.73 83.0015 578.658 80.7433 576.514 78.9809C574.478 77.1082 571.798 75.6211 568.475 74.5196C565.26 73.418 560.865 72.2063 555.291 70.8845C546.716 68.7916 539.695 66.6986 534.228 64.6057C528.762 62.5127 524.046 59.153 520.08 54.5265C516.221 49.9 514.291 43.7314 514.291 36.0206C514.291 29.3011 516.06 23.2426 519.597 17.845C523.134 12.3373 528.44 7.98621 535.515 4.79173C542.696 1.59725 551.432 0 561.722 0C568.904 0 575.925 0.881237 582.785 2.64371C589.645 4.40618 595.648 6.93974 600.793 10.2444L592.754 30.5679C582.356 24.5094 571.959 21.4802 561.562 21.4802C554.273 21.4802 548.86 22.6919 545.323 25.1153C541.892 27.5387 540.177 30.7331 540.177 34.6987C540.177 38.6643 542.16 41.6384 546.126 43.6212C550.2 45.4939 556.363 47.3665 564.617 49.2391C573.192 51.332 580.213 53.425 585.679 55.5179C591.146 57.6109 595.808 60.9155 599.667 65.4318C603.633 69.9482 605.616 76.0618 605.616 83.7726C605.616 90.3819 603.794 96.4404 600.15 101.948C596.612 107.346 591.253 111.642 584.071 114.836C576.89 118.031 568.154 119.628 557.864 119.628Z" fill="black"/>
</svg>
