<svg width="24" height="20" viewBox="0 0 24 20" fill="none" xmlns="http://www.w3.org/2000/svg">
<path d="M22 9.55627V2.4998C22 2.27667 21.852 2.08036 21.6372 2.01886L14.6372 0.018846C14.5461 -0.00679466 14.4514 -0.00641966 14.3628 0.018846L7.5 1.97967L0.637219 0.018846C0.486844 -0.0236228 0.323719 0.00614274 0.19875 0.100408C0.0737344 0.195143 0 0.34308 0 0.49983V15.4998C0 15.723 0.147937 15.9193 0.362812 15.9808L7.3628 17.9808C7.4077 17.9935 7.45411 17.9998 7.5 17.9998C7.54645 17.9998 7.59267 17.9935 7.6372 17.9808L14.5 16.02L17.6169 16.9104C18.4853 18.3283 19.4153 19.5589 19.603 19.804C19.6978 19.9275 19.8442 19.9998 20 19.9998C20.1558 19.9998 20.3023 19.9275 20.397 19.804C20.7656 19.3226 24 15.0433 24 12.9998C24 11.526 23.1898 10.2502 22 9.55627ZM6.99998 16.8368L0.999984 15.1229V1.16292L6.99998 2.87681V16.8368ZM14 15.1225L8.00002 16.8368V2.87714L14 1.16283V15.1225ZM15 15.1229V1.16292L21 2.87681V9.14189C20.6785 9.05831 20.3473 8.99986 20 8.99986C17.7945 8.99986 16 10.7943 16 12.9998C16 13.7054 16.3889 14.6778 16.9089 15.668L15 15.1229ZM20 18.6629C18.9009 17.1507 17 14.2728 17 12.9998C17 11.3455 18.3457 9.9998 20 9.9998C21.6543 9.9998 23 11.3455 23 12.9998C23 14.2728 21.0991 17.1507 20 18.6629Z" fill="#469BA7"/>
<path d="M20 11.9991C19.4488 11.9991 19.0001 12.4479 19.0001 12.9991C19.0001 13.5504 19.4488 13.9991 20 13.9991C20.5513 13.9991 21 13.5504 21 12.9991C21 12.4478 20.5513 11.9991 20 11.9991ZM20.0005 12.9991C20.0005 12.9991 20 12.9987 20 12.9981L20.5 12.9991H20.0005Z" fill="#469BA7"/>
</svg>
