<svg width="137" height="156" viewBox="0 0 137 156" fill="none" xmlns="http://www.w3.org/2000/svg">
<rect width="137" height="156" fill="#D9D9D9"/>
<path d="M48.1109 83H49.6189V73.432H48.1109V83ZM53.0326 83H54.3846V78.268C54.3846 77.41 54.2676 76.175 54.2026 75.304H54.2546L55.0086 77.514L56.6856 82.077H57.6216L59.2856 77.514L60.0526 75.304H60.1046C60.0266 76.175 59.9096 77.41 59.9096 78.268V83H61.3136V73.432H59.5716L57.8426 78.268C57.6216 78.905 57.4396 79.555 57.2186 80.205H57.1536C56.9326 79.555 56.7376 78.905 56.5166 78.268L54.7616 73.432H53.0326V83ZM66.1767 79.087L66.5667 77.8C66.8787 76.76 67.1777 75.707 67.4507 74.615H67.5027C67.8017 75.694 68.0877 76.76 68.4127 77.8L68.7897 79.087H66.1767ZM69.9597 83H71.5587L68.3867 73.432H66.6447L63.4727 83H65.0067L65.8257 80.27H69.1537L69.9597 83ZM77.4909 83.169C78.8039 83.169 79.8829 82.688 80.5199 82.051V77.904H77.2569V79.139H79.1549V81.388C78.8169 81.687 78.2319 81.856 77.6469 81.856C75.6709 81.856 74.6179 80.465 74.6179 78.19C74.6179 75.941 75.8009 74.563 77.5819 74.563C78.5049 74.563 79.0899 74.94 79.5579 75.421L80.3769 74.459C79.7919 73.848 78.8819 73.25 77.5299 73.25C74.9949 73.25 73.0709 75.122 73.0709 78.242C73.0709 81.375 74.9299 83.169 77.4909 83.169ZM83.6162 83H89.4142V81.726H85.1242V78.632H88.6342V77.358H85.1242V74.693H89.2712V73.432H83.6162V83Z" fill="#B9B9B9"/>
</svg>
