<svg width="168" height="83" viewBox="0 0 168 83" fill="none" xmlns="http://www.w3.org/2000/svg">
<path opacity="0.1" d="M84 0.679688C38.7127 0.679688 2 37.3471 2 82.5787H166C166 37.3471 129.287 0.679688 84 0.679688Z" fill="#469BA7"/>
<path d="M111.89 75.8792H119.72C120.118 75.8792 120.499 75.7212 120.781 75.4399C121.062 75.1586 121.22 74.777 121.22 74.3792V64.8692C121.219 64.262 121.035 63.6693 120.69 63.1694C120.345 62.6694 119.857 62.2858 119.29 62.0692L109.53 58.3492C108.603 57.9942 107.802 57.371 107.23 56.5592L101 47.7192C100.723 47.3269 100.356 47.0068 99.9297 46.7858C99.5034 46.5648 99.0302 46.4494 98.55 46.4492H74.46C73.6582 46.4488 72.8681 46.6412 72.1563 47.0101C71.4445 47.3791 70.8318 47.9138 70.37 48.5692L64.74 56.5692C64.1681 57.381 63.3674 58.0042 62.44 58.3593L53.97 61.5892C53.0234 61.9498 52.2087 62.5895 51.6337 63.4234C51.0587 64.2573 50.7505 65.2463 50.75 66.2592V74.3892C50.75 74.787 50.908 75.1686 51.1893 75.4499C51.4706 75.7312 51.8522 75.8892 52.25 75.8892H60.1" fill="white"/>
<path d="M111.89 75.8792H119.72C120.118 75.8792 120.499 75.7212 120.781 75.4399C121.062 75.1586 121.22 74.777 121.22 74.3792V64.8692C121.219 64.262 121.035 63.6693 120.69 63.1694C120.345 62.6694 119.857 62.2858 119.29 62.0692L109.53 58.3492C108.603 57.9942 107.802 57.371 107.23 56.5592L101 47.7192C100.723 47.3269 100.356 47.0068 99.9297 46.7858C99.5034 46.5648 99.0302 46.4494 98.55 46.4492H74.46C73.6582 46.4488 72.8681 46.6412 72.1563 47.0101C71.4445 47.3791 70.8318 47.9138 70.37 48.5692L64.74 56.5692C64.1681 57.381 63.3674 58.0042 62.44 58.3593L53.97 61.5892C53.0234 61.9498 52.2087 62.5895 51.6337 63.4234C51.0587 64.2573 50.7505 65.2463 50.75 66.2592V74.3892C50.75 74.787 50.908 75.1686 51.1893 75.4499C51.4706 75.7312 51.8522 75.8892 52.25 75.8892H60.1" stroke="#333333" stroke-width="1.2" stroke-miterlimit="10"/>
<path d="M76.3401 75.8691H95.6301" stroke="#333333" stroke-width="1.2" stroke-miterlimit="10"/>
<path d="M42.2 51.15C48.2475 51.15 53.15 46.2475 53.15 40.2C53.15 34.1525 48.2475 29.25 42.2 29.25C36.1525 29.25 31.25 34.1525 31.25 40.2C31.25 46.2475 36.1525 51.15 42.2 51.15Z" fill="white" stroke="#333333" stroke-width="1.2" stroke-miterlimit="10"/>
<path d="M42.2 52.7793V82.1393H168" stroke="#333333" stroke-width="1.2" stroke-miterlimit="10"/>
<path d="M0 82L41 82" stroke="#333333" stroke-width="1.2" stroke-miterlimit="10"/>
<path d="M68.21 82.1406C71.7998 82.1406 74.71 79.2305 74.71 75.6406C74.71 72.0508 71.7998 69.1406 68.21 69.1406C64.6201 69.1406 61.71 72.0508 61.71 75.6406C61.71 79.2305 64.6201 82.1406 68.21 82.1406Z" fill="white" stroke="#333333" stroke-width="1.2" stroke-miterlimit="10"/>
<path d="M103.76 82.1406C107.35 82.1406 110.26 79.2305 110.26 75.6406C110.26 72.0508 107.35 69.1406 103.76 69.1406C100.17 69.1406 97.26 72.0508 97.26 75.6406C97.26 79.2305 100.17 82.1406 103.76 82.1406Z" fill="white" stroke="#333333" stroke-width="1.2" stroke-miterlimit="10"/>
</svg>
