<svg width="54" height="54" viewBox="0 0 54 54" fill="none" xmlns="http://www.w3.org/2000/svg">
<circle cx="27" cy="27" r="26.5345" stroke="#E5E5E5" stroke-width="0.931035"/>
<path d="M28.9732 18.9378V17.8298C28.9732 17.567 28.9214 17.3067 28.8208 17.0638C28.7202 16.821 28.5728 16.6003 28.3869 16.4144C28.201 16.2285 27.9803 16.0811 27.7375 15.9805C27.4946 15.8799 27.2343 15.8281 26.9715 15.8281V15.8281C26.4406 15.8281 25.9315 16.039 25.5561 16.4144C25.1807 16.7898 24.9697 17.299 24.9697 17.8298V18.9378" stroke="#333333" stroke-width="1.02414" stroke-linecap="round" stroke-linejoin="round"/>
<path d="M26.9993 18.6582C29.0957 18.6582 31.1062 19.491 32.5886 20.9734C34.071 22.4558 34.9038 24.4663 34.9038 26.5627V35.1841H19.0762V26.572C19.0749 25.5316 19.2791 24.5012 19.677 23.5399C20.0748 22.5786 20.6585 21.7053 21.3946 20.9701C22.1307 20.2349 23.0047 19.6522 23.9665 19.2555C24.9283 18.8587 25.9589 18.6558 26.9993 18.6582V18.6582Z" stroke="#333333" stroke-width="1.02414" stroke-linecap="round" stroke-linejoin="round"/>
<path d="M23.8525 35.2305C23.8525 35.6437 23.934 36.0529 24.0921 36.4347C24.2503 36.8165 24.482 37.1634 24.7743 37.4557C25.0665 37.7479 25.4134 37.9797 25.7952 38.1378C26.177 38.296 26.5862 38.3774 26.9994 38.3774C27.4127 38.3774 27.8219 38.296 28.2037 38.1378C28.5855 37.9797 28.9324 37.7479 29.2246 37.4557C29.5168 37.1634 29.7486 36.8165 29.9068 36.4347C30.0649 36.0529 30.1463 35.6437 30.1463 35.2305H23.8525Z" fill="#469BA7"/>
<path d="M37.2406 35.1836H16.7578" stroke="#333333" stroke-width="0.940345" stroke-linecap="round" stroke-linejoin="round"/>
</svg>
