<svg width="54" height="54" viewBox="0 0 54 54" fill="none" xmlns="http://www.w3.org/2000/svg">
<circle cx="27" cy="27" r="26.5345" stroke="#E5E5E5" stroke-width="0.931035"/>
<path d="M35.2033 13.0332H19.5433C19.0394 13.0332 18.6309 13.4417 18.6309 13.9456V40.0518C18.6309 40.5557 19.0394 40.9642 19.5433 40.9642H35.2033C35.7072 40.9642 36.1157 40.5557 36.1157 40.0518V13.9456C36.1157 13.4417 35.7072 13.0332 35.2033 13.0332Z" stroke="#333333" stroke-width="0.931035" stroke-linecap="round" stroke-linejoin="round"/>
<path d="M36.1157 16.3008H18.6309V35.8711H36.1157" stroke="#333333" stroke-width="0.931035" stroke-linecap="round" stroke-linejoin="round"/>
<path d="M35.2024 40.9648H19.5516C19.3047 40.9648 19.068 40.8668 18.8934 40.6922C18.7188 40.5175 18.6206 40.2807 18.6206 40.0338L18.6206 13.9648C18.6206 13.7179 18.7188 13.4811 18.8934 13.3065C19.068 13.1319 19.3047 13.0338 19.5516 13.0338L35.1744 13.0338C35.4214 13.0338 35.6582 13.1319 35.8328 13.3065C36.0074 13.4811 36.1055 13.7179 36.1055 13.9648V40.0338C36.1055 40.2807 36.0074 40.5175 35.8328 40.6922C35.6582 40.8668 35.4214 40.9648 35.1744 40.9648H35.2024Z" stroke="#333333" stroke-width="0.931035" stroke-linecap="round" stroke-linejoin="round"/>
<path d="M18.6309 16.3008H36.1157V35.8711H18.6309" stroke="#333333" stroke-width="0.931035" stroke-linecap="round" stroke-linejoin="round"/>
<path d="M27.3736 39.9503C28.2169 39.9503 28.9005 39.2667 28.9005 38.4234C28.9005 37.5801 28.2169 36.8965 27.3736 36.8965C26.5303 36.8965 25.8467 37.5801 25.8467 38.4234C25.8467 39.2667 26.5303 39.9503 27.3736 39.9503Z" fill="#469BA7"/>
</svg>
