<svg width="54" height="54" viewBox="0 0 54 54" fill="none" xmlns="http://www.w3.org/2000/svg">
<circle cx="27" cy="27" r="26.5345" stroke="#E5E5E5" stroke-width="0.931035"/>
<path d="M36.2826 20.2405H31.497L29.8026 17.6895H24.2164L22.5125 20.2405H17.6898C17.4429 20.2405 17.206 20.3386 17.0314 20.5132C16.8568 20.6878 16.7588 20.9246 16.7588 21.1715V35.4815C16.7588 35.7284 16.8568 35.9653 17.0314 36.1399C17.206 36.3145 17.4429 36.4126 17.6898 36.4126H36.3105C36.5574 36.4126 36.7942 36.3145 36.9688 36.1399C37.1434 35.9653 37.2415 35.7284 37.2415 35.4815V21.1715C37.2416 21.0469 37.2165 20.9235 37.168 20.8087C37.1195 20.6938 37.0484 20.5899 36.959 20.5031C36.8696 20.4163 36.7636 20.3483 36.6474 20.3032C36.5312 20.2581 36.4072 20.2367 36.2826 20.2405V20.2405Z" stroke="#333333" stroke-width="0.931035" stroke-miterlimit="10"/>
<path d="M26.9723 32.513C29.2811 32.513 31.1527 30.6414 31.1527 28.3327C31.1527 26.0239 29.2811 24.1523 26.9723 24.1523C24.6636 24.1523 22.792 26.0239 22.792 28.3327C22.792 30.6414 24.6636 32.513 26.9723 32.513Z" fill="#469BA7"/>
<path d="M33.3133 24.4312C33.812 24.4312 34.2164 24.0269 34.2164 23.5281C34.2164 23.0293 33.812 22.625 33.3133 22.625C32.8145 22.625 32.4102 23.0293 32.4102 23.5281C32.4102 24.0269 32.8145 24.4312 33.3133 24.4312Z" fill="#333333"/>
</svg>
