<svg width="54" height="54" viewBox="0 0 54 54" fill="none" xmlns="http://www.w3.org/2000/svg">
<circle cx="27" cy="27" r="26.5345" stroke="#E5E5E5" stroke-width="0.931035"/>
<path d="M27.2884 13.0352C26.0268 13.0315 24.7769 13.2773 23.6106 13.7584C22.4444 14.2394 21.3848 14.9464 20.4927 15.8384C19.6006 16.7305 18.8937 17.7902 18.4127 18.9564C17.9316 20.1227 17.6858 21.3726 17.6895 22.6342C17.6895 27.9597 27.2884 40.9662 27.2884 40.9662C27.2884 40.9662 36.8874 27.9317 36.8874 22.6342C36.8911 21.3726 36.6453 20.1227 36.1643 18.9564C35.6832 17.7902 34.9762 16.7305 34.0841 15.8384C33.192 14.9464 32.1324 14.2394 30.9662 13.7584C29.7999 13.2773 28.55 13.0315 27.2884 13.0352V13.0352Z" stroke="#333333" stroke-width="0.931035" stroke-linecap="round" stroke-linejoin="round"/>
<path d="M27.2884 27.2312C29.7 27.2312 31.655 25.2762 31.655 22.8646C31.655 20.453 29.7 18.498 27.2884 18.498C24.8768 18.498 22.9219 20.453 22.9219 22.8646C22.9219 25.2762 24.8768 27.2312 27.2884 27.2312Z" fill="#469BA7"/>
</svg>
