<svg width="24" height="20" viewBox="0 0 24 20" fill="none" xmlns="http://www.w3.org/2000/svg">
<path d="M15.73 1.48999H3.27C2.01632 1.48999 1 2.5063 1 3.75999V16.22C1 17.4737 2.01632 18.49 3.27 18.49H15.73C16.9837 18.49 18 17.4737 18 16.22V3.75999C18 2.5063 16.9837 1.48999 15.73 1.48999Z" stroke="#469BA7" stroke-width="0.8" stroke-linecap="round" stroke-linejoin="round"/>
<path d="M13.5898 8.76996H10.7198V5.89996C10.7198 5.8842 10.7167 5.8686 10.7107 5.85404C10.7046 5.83948 10.6958 5.82625 10.6846 5.81511C10.6735 5.80396 10.6603 5.79512 10.6457 5.78909C10.6312 5.78306 10.6156 5.77996 10.5998 5.77996H8.40979C8.39321 5.77857 8.37651 5.78065 8.36078 5.78605C8.34505 5.79146 8.33061 5.80008 8.31839 5.81136C8.30617 5.82265 8.29641 5.83635 8.28976 5.8516C8.28312 5.86685 8.27973 5.88332 8.27979 5.89996V8.76996H5.40979C5.37531 8.76996 5.34225 8.78365 5.31787 8.80803C5.29349 8.83241 5.27979 8.86548 5.27979 8.89996V11.09C5.27979 11.1244 5.29349 11.1575 5.31787 11.1819C5.34225 11.2063 5.37531 11.22 5.40979 11.22H8.27979V14.09C8.27973 14.1066 8.28312 14.1231 8.28976 14.1383C8.29641 14.1536 8.30617 14.1673 8.31839 14.1786C8.33061 14.1898 8.34505 14.1985 8.36078 14.2039C8.37651 14.2093 8.39321 14.2113 8.40979 14.21H10.5998C10.6316 14.21 10.6621 14.1973 10.6846 14.1748C10.7071 14.1523 10.7198 14.1218 10.7198 14.09V11.22H13.5898C13.6243 11.22 13.6573 11.2063 13.6817 11.1819C13.7061 11.1575 13.7198 11.1244 13.7198 11.09V8.89996C13.7198 8.86548 13.7061 8.83241 13.6817 8.80803C13.6573 8.78365 13.6243 8.76996 13.5898 8.76996Z" fill="#469BA7"/>
<path d="M18.6299 6.84998H22.6899" stroke="#469BA7" stroke-width="0.8" stroke-linecap="round" stroke-linejoin="round"/>
<path d="M18.6299 13.1401H22.6899" stroke="#469BA7" stroke-width="0.8" stroke-linecap="round" stroke-linejoin="round"/>
<path d="M22.6899 19V1" stroke="#469BA7" stroke-width="0.8" stroke-linecap="round" stroke-linejoin="round"/>
</svg>
