<svg width="20" height="20" viewBox="0 0 20 20" fill="none" xmlns="http://www.w3.org/2000/svg">
<path d="M17.4988 2.8384C17.9114 3.28031 18.2329 3.79924 18.4449 4.3655C18.6568 4.93177 18.7551 5.53426 18.734 6.13852C18.7129 6.74279 18.5728 7.33696 18.3219 7.88706C18.071 8.43716 17.7141 8.9324 17.2716 9.34444L12.7 13.6075L6.42117 6.87426L10.9827 2.61086C11.4255 2.19791 11.9453 1.87622 12.5124 1.66417C13.0795 1.45212 13.6828 1.35385 14.2879 1.37498C14.893 1.39611 15.488 1.53622 16.0389 1.78732C16.5898 2.03841 17.0859 2.39558 17.4988 2.8384Z" fill="#469BA7" stroke="#469BA7" stroke-width="0.8" stroke-miterlimit="10"/>
<path d="M12.7197 13.6081L8.14818 17.8712C7.24544 18.651 6.07555 19.0505 4.88439 18.9858C3.69322 18.921 2.57355 18.3971 1.76065 17.524C0.947748 16.6509 0.504952 15.4967 0.525289 14.304C0.545626 13.1112 1.02748 11.9728 1.86968 11.128L6.44093 6.87491L11.0025 2.61151C11.4348 2.15145 11.957 1.78509 12.5367 1.53514C13.1164 1.28518 13.7413 1.15695 14.3726 1.1584C15.0039 1.15985 15.6281 1.29094 16.2067 1.54356C16.7852 1.79618 17.3058 2.16493 17.736 2.62697C18.1662 3.089 18.4968 3.63447 18.7075 4.22956C18.9183 4.82465 19.0046 5.45668 18.961 6.08647C18.9174 6.71627 18.745 7.33041 18.4543 7.89082C18.1637 8.45123 17.761 8.94598 17.2713 9.34439L12.7197 13.6081Z" stroke="#469BA7" stroke-width="0.8" stroke-linecap="round" stroke-linejoin="round"/>
<path d="M6.43164 6.85461L6.44128 6.86496L12.7201 13.5982" stroke="#469BA7" stroke-width="0.8" stroke-linecap="round" stroke-linejoin="round"/>
</svg>
