<svg width="24" height="25" viewBox="0 0 24 25" fill="none" xmlns="http://www.w3.org/2000/svg">
<path d="M21.4764 15.83C21.5557 15.6968 21.5822 15.5387 21.5508 15.387C21.5193 15.2352 21.4321 15.1007 21.3064 15.01L19.6464 13.76C19.5622 13.6924 19.4962 13.6049 19.4543 13.5054C19.4124 13.4059 19.3959 13.2975 19.4064 13.19C19.4064 12.97 19.4064 12.74 19.4064 12.51C19.4064 12.28 19.4064 12.05 19.4064 11.83C19.3959 11.7225 19.4124 11.6141 19.4543 11.5146C19.4962 11.4151 19.5622 11.3276 19.6464 11.26L21.2764 10.02C21.3979 9.92819 21.4813 9.79489 21.5108 9.64551C21.5403 9.49612 21.5138 9.3411 21.4364 9.21L19.4364 5.8C19.3604 5.66633 19.2381 5.56509 19.0925 5.51536C18.947 5.46562 18.7883 5.47083 18.6464 5.53L16.7764 6.32C16.6747 6.35985 16.5645 6.37341 16.4562 6.35943C16.3478 6.34545 16.2447 6.30437 16.1564 6.24C15.7754 5.97009 15.3703 5.73577 14.9464 5.54C14.8496 5.49442 14.7654 5.42601 14.7009 5.34065C14.6365 5.25529 14.5937 5.15554 14.5764 5.05L14.3264 3.05C14.3048 2.898 14.2293 2.75883 14.1137 2.65787C13.998 2.5569 13.8499 2.50087 13.6964 2.5H9.7564C9.60401 2.50119 9.45722 2.55757 9.34322 2.6587C9.22922 2.75982 9.15575 2.89884 9.1364 3.05L8.87639 5.05C8.86074 5.15614 8.81866 5.25665 8.754 5.34227C8.68935 5.42789 8.6042 5.49589 8.5064 5.54C8.07475 5.74094 7.66295 5.982 7.2764 6.26C7.18874 6.32186 7.08693 6.3607 6.98034 6.37293C6.87375 6.38516 6.7658 6.3704 6.6664 6.33L4.87639 5.52C4.73445 5.46083 4.57578 5.45562 4.43026 5.50536C4.28474 5.55509 4.16244 5.65633 4.0864 5.79L2.0864 9.2C2.00771 9.33166 1.9815 9.48813 2.01301 9.63824C2.04451 9.78835 2.13142 9.92109 2.2564 10.01L3.85641 11.24C3.94198 11.3041 4.0092 11.3896 4.05132 11.4879C4.09344 11.5862 4.10899 11.6938 4.0964 11.8C4.0964 12.02 4.0964 12.25 4.0964 12.47C4.08147 12.7164 4.08147 12.9636 4.0964 13.21C4.10593 13.3188 4.0891 13.4284 4.04732 13.5293C4.00555 13.6303 3.94006 13.7197 3.85641 13.79L2.2564 15C2.13416 15.0935 2.0504 15.2286 2.02093 15.3797C1.99145 15.5307 2.01829 15.6874 2.0964 15.82L4.0964 19.23C4.17402 19.3619 4.29702 19.461 4.4424 19.5089C4.58778 19.5567 4.74561 19.55 4.8864 19.49L6.7764 18.7C6.87614 18.6614 6.98377 18.6476 7.09003 18.6597C7.1963 18.6719 7.29801 18.7098 7.3864 18.77C7.75839 19.0402 8.15713 19.2714 8.57639 19.46C8.67588 19.5017 8.76255 19.569 8.82755 19.6551C8.89255 19.7411 8.93356 19.8429 8.9464 19.95L9.2064 21.95C9.22596 22.1029 9.30089 22.2433 9.41698 22.3446C9.53308 22.446 9.68229 22.5012 9.8364 22.5H13.7664C13.9205 22.5012 14.0697 22.446 14.1858 22.3446C14.3019 22.2433 14.3768 22.1029 14.3964 21.95L14.6564 19.9C14.6712 19.7935 14.7129 19.6926 14.7777 19.6069C14.8424 19.5211 14.9281 19.4533 15.0264 19.41C15.4381 19.219 15.83 18.9879 16.1964 18.72C16.2841 18.6581 16.3859 18.6193 16.4925 18.6071C16.599 18.5948 16.707 18.6096 16.8064 18.65L18.7064 19.44C18.8472 19.5 19.005 19.5067 19.1504 19.4589C19.2958 19.411 19.4188 19.3119 19.4964 19.18L21.4964 15.77" stroke="#707070" stroke-width="0.7" stroke-linecap="round" stroke-linejoin="round"/>
<path d="M11.7865 15.9104C13.6642 15.9104 15.1865 14.3881 15.1865 12.5104C15.1865 10.6326 13.6642 9.11035 11.7865 9.11035C9.90871 9.11035 8.38647 10.6326 8.38647 12.5104C8.38647 14.3881 9.90871 15.9104 11.7865 15.9104Z" stroke="#707070" stroke-width="0.7" stroke-linecap="round" stroke-linejoin="round"/>
</svg>
