<svg width="72" height="73" viewBox="0 0 72 73" fill="none" xmlns="http://www.w3.org/2000/svg">
<g filter="url(#filter0_d)">
<path fill-rule="evenodd" clip-rule="evenodd" d="M62.1228 34.8611C62.2824 33.616 62.3644 32.3625 62.3685 31.1076C62.3549 23.0868 59.1125 15.3983 53.3517 9.7267C47.5908 4.05513 39.7813 0.862966 31.6343 0.849609C23.4926 0.86294 15.6878 4.05094 9.9278 9.71597C4.16784 15.381 0.921847 23.0617 0.900146 31.0773C0.900135 39.1068 4.13654 46.8083 9.89885 52.4908C15.6612 58.1733 23.4784 61.3724 31.6343 61.3857C33.9837 61.3835 36.325 61.1157 38.6124 60.5876L38.6417 60.5555C38.9731 62.1085 39.7553 63.5474 40.911 64.6879C42.4792 66.2303 44.6052 67.0966 46.8218 67.0966C49.0385 67.0966 51.1644 66.2303 52.7326 64.6879L60.7266 56.7774L68.7924 48.877C69.5689 48.1149 70.1852 47.2096 70.606 46.2128C71.0268 45.216 71.2439 44.1473 71.245 43.0679C71.245 41.9853 71.0284 40.9133 70.6075 39.9131C70.1867 38.9129 69.5699 38.004 68.7924 37.2385C67.2207 35.695 65.0913 34.8281 62.8713 34.8281C62.6204 34.8281 62.3707 34.8392 62.1228 34.8611Z" fill="white"/>
<path d="M62.1228 34.8611L61.6269 34.7975C61.6076 34.9477 61.6574 35.0984 61.7623 35.2076C61.8672 35.3167 62.0159 35.3724 62.1667 35.3591L62.1228 34.8611ZM62.3685 31.1076L62.8685 31.1092L62.8685 31.1067L62.3685 31.1076ZM53.3517 9.7267L53.0009 10.083L53.3517 9.7267ZM31.6343 0.849609L31.6351 0.349607L31.6335 0.34961L31.6343 0.849609ZM9.9278 9.71597L9.5772 9.3595L9.9278 9.71597ZM0.900146 31.0773L0.400146 31.0759V31.0773H0.900146ZM9.89885 52.4908L10.2499 52.1347L9.89885 52.4908ZM31.6343 61.3857L31.6335 61.8857H31.6348L31.6343 61.3857ZM38.6124 60.5876L38.7248 61.0748C38.8236 61.052 38.9131 60.9998 38.9814 60.925L38.6124 60.5876ZM38.6417 60.5555L39.1307 60.4512C39.0916 60.268 38.9535 60.1221 38.7727 60.073C38.592 60.0239 38.399 60.08 38.2726 60.2182L38.6417 60.5555ZM40.911 64.6879L40.5598 65.0438L40.5604 65.0444L40.911 64.6879ZM52.7326 64.6879L53.0832 65.0444L53.0843 65.0433L52.7326 64.6879ZM60.7266 56.7774L60.3767 56.4202L60.3749 56.422L60.7266 56.7774ZM68.7924 48.877L69.1423 49.2342L69.1426 49.2338L68.7924 48.877ZM71.245 43.0679L71.745 43.0683V43.0679H71.245ZM70.6075 39.9131L71.0684 39.7192L70.6075 39.9131ZM68.7924 37.2385L69.1432 36.8822L69.1427 36.8818L68.7924 37.2385ZM62.6187 34.9246C62.781 33.659 62.8644 32.3849 62.8685 31.1092L61.8685 31.106C61.8645 32.3402 61.7838 33.573 61.6269 34.7975L62.6187 34.9246ZM62.8685 31.1067C62.8547 22.9511 59.5577 15.1349 53.7024 9.3704L53.0009 10.083C58.6673 15.6616 61.8551 23.2225 61.8685 31.1084L62.8685 31.1067ZM53.7024 9.3704C47.8475 3.60614 39.912 0.36318 31.6351 0.34961L31.6335 1.34961C39.6507 1.36275 47.3342 4.50411 53.0009 10.083L53.7024 9.3704ZM31.6335 0.34961C23.362 0.363153 15.4313 3.60189 9.5772 9.3595L10.2784 10.0725C15.9442 4.5 23.6232 1.36273 31.6351 1.34961L31.6335 0.34961ZM9.5772 9.3595C3.72285 15.1174 0.422213 22.9256 0.400148 31.0759L1.40014 31.0786C1.42148 23.1978 4.61283 15.6447 10.2784 10.0725L9.5772 9.3595ZM0.400146 31.0773C0.400135 39.2418 3.69103 47.0712 9.54777 52.8468L10.2499 52.1347C4.58206 46.5454 1.40014 38.9718 1.40015 31.0773H0.400146ZM9.54777 52.8468C15.4042 58.6221 23.3476 61.8721 31.6335 61.8857L31.6351 60.8857C23.6092 60.8726 15.9181 57.7244 10.2499 52.1347L9.54777 52.8468ZM31.6348 61.8857C34.0218 61.8835 36.4007 61.6114 38.7248 61.0748L38.4999 60.1005C36.2493 60.62 33.9455 60.8835 31.6338 60.8857L31.6348 61.8857ZM38.9814 60.925L39.0108 60.8928L38.2726 60.2182L38.2433 60.2503L38.9814 60.925ZM41.2622 64.3321C40.1761 63.2601 39.4417 61.9087 39.1307 60.4512L38.1527 60.6599C38.5045 62.3084 39.3346 63.8346 40.5598 65.0438L41.2622 64.3321ZM46.8218 66.5966C44.7352 66.5966 42.7355 65.781 41.2616 64.3314L40.5604 65.0444C42.2229 66.6795 44.4751 67.5966 46.8218 67.5966V66.5966ZM52.382 64.3314C50.9081 65.781 48.9084 66.5966 46.8218 66.5966V67.5966C49.1685 67.5966 51.4207 66.6795 53.0832 65.0444L52.382 64.3314ZM60.3749 56.422L52.3809 64.3325L53.0843 65.0433L61.0783 57.1328L60.3749 56.422ZM68.4425 48.5198L60.3767 56.4202L61.0765 57.1346L69.1422 49.2342L68.4425 48.5198ZM70.1453 46.0183C69.7504 46.9539 69.1717 47.8041 68.4421 48.5202L69.1426 49.2338C69.966 48.4257 70.6199 47.4653 71.0666 46.4073L70.1453 46.0183ZM70.745 43.0674C70.744 44.0801 70.5403 45.0828 70.1453 46.0183L71.0666 46.4073C71.5133 45.3492 71.7439 44.2146 71.745 43.0683L70.745 43.0674ZM70.1467 40.107C70.5417 41.046 70.745 42.052 70.745 43.0679H71.745C71.745 41.9185 71.515 40.7806 71.0684 39.7192L70.1467 40.107ZM68.4416 37.5948C69.1724 38.3143 69.7516 39.168 70.1467 40.107L71.0684 39.7192C70.6218 38.6578 69.9675 37.6938 69.1432 36.8822L68.4416 37.5948ZM62.8713 35.3281C64.9614 35.3281 66.9646 36.1443 68.442 37.5953L69.1427 36.8818C67.4767 35.2456 65.2212 34.3281 62.8713 34.3281V35.3281ZM62.1667 35.3591C62.4001 35.3386 62.6351 35.3281 62.8713 35.3281V34.3281C62.6057 34.3281 62.3413 34.3398 62.0789 34.363L62.1667 35.3591Z" fill="black"/>
</g>
<path d="M48.885 45.1211L48.9055 45.1413L60.7272 56.7798" fill="white"/>
<path d="M48.885 45.1211L48.9055 45.1413L60.7272 56.7798" stroke="black" stroke-linecap="round" stroke-linejoin="round"/>
<path d="M62.1222 34.8658C62.2822 33.6192 62.3644 32.3641 62.3685 31.1076C62.3549 23.0868 59.1125 15.3983 53.3517 9.7267C47.5908 4.05513 39.7813 0.862966 31.6343 0.849609C23.4926 0.86294 15.6878 4.05094 9.9278 9.71597C4.16784 15.381 0.921847 23.0617 0.900146 31.0773C0.900135 39.1068 4.13654 46.8083 9.89885 52.4908C15.6612 58.1733 23.4784 61.3724 31.6343 61.3857C33.9837 61.3835 36.325 61.1157 38.6124 60.5876" fill="white"/>
<path d="M62.1222 34.8658C62.2822 33.6192 62.3644 32.3641 62.3685 31.1076C62.3549 23.0868 59.1125 15.3983 53.3517 9.7267C47.5908 4.05513 39.7814 0.862966 31.6343 0.849609C23.4926 0.86294 15.6878 4.05094 9.9278 9.71598C4.16784 15.381 0.921847 23.0617 0.900146 31.0773C0.900135 39.1068 4.13654 46.8083 9.89885 52.4908C15.6612 58.1733 23.4784 61.3724 31.6343 61.3857C33.9837 61.3835 36.325 61.1157 38.6124 60.5876" stroke="black" stroke-miterlimit="10"/>
<path d="M18.6223 43.918L31.6343 31.0975V10.1543" fill="white"/>
<path d="M18.6223 43.918L31.6343 31.0975V10.1543" stroke="black" stroke-miterlimit="10"/>
<path d="M60.7266 56.7774L52.7326 64.6879C51.1644 66.2303 49.0385 67.0966 46.8218 67.0966C44.6052 67.0966 42.4792 66.2303 40.911 64.6879C39.3431 63.1406 38.4626 61.0442 38.4626 58.8586C38.4626 56.673 39.3431 54.5766 40.911 53.0292L48.946 45.1389L56.9502 37.2385C58.5219 35.695 60.6513 34.8281 62.8713 34.8281C65.0913 34.8281 67.2207 35.695 68.7924 37.2385C69.5699 38.004 70.1867 38.9129 70.6075 39.9131C71.0284 40.9133 71.245 41.9853 71.245 43.0679C71.2439 44.1473 71.0268 45.216 70.606 46.2128C70.1851 47.2096 69.5689 48.1149 68.7924 48.877L60.7266 56.7774Z" fill="white" stroke="black" stroke-linecap="round" stroke-linejoin="round"/>
<path d="M68.7509 37.2385C69.5285 38.004 70.1453 38.9129 70.5661 39.9131C70.9869 40.9133 71.2035 41.9853 71.2035 43.0679C71.2025 44.1473 70.9853 45.216 70.5645 46.2128C70.1437 47.2096 69.5274 48.1149 68.7509 48.877L60.7262 56.7774L48.9045 45.1389L56.9088 37.2385C58.4805 35.695 60.6098 34.8281 62.8298 34.8281C65.0498 34.8281 67.1792 35.695 68.7509 37.2385Z" fill="#FFE927" stroke="black" stroke-miterlimit="10"/>
<defs>
<filter id="filter0_d" x="0.400146" y="0.349609" width="71.3448" height="73.247" filterUnits="userSpaceOnUse" color-interpolation-filters="sRGB">
<feFlood flood-opacity="0" result="BackgroundImageFix"/>
<feColorMatrix in="SourceAlpha" type="matrix" values="0 0 0 0 0 0 0 0 0 0 0 0 0 0 0 0 0 0 127 0" result="hardAlpha"/>
<feOffset dy="6"/>
<feComposite in2="hardAlpha" operator="out"/>
<feColorMatrix type="matrix" values="0 0 0 0 0 0 0 0 0 0 0 0 0 0 0 0 0 0 0.1 0"/>
<feBlend mode="normal" in2="BackgroundImageFix" result="effect1_dropShadow"/>
<feBlend mode="normal" in="SourceGraphic" in2="effect1_dropShadow" result="shape"/>
</filter>
</defs>
</svg>
