<svg width="15" height="15" viewBox="0 0 15 15" fill="none" xmlns="http://www.w3.org/2000/svg">
<path d="M3.01661 6.49167C4.21661 8.85 6.14994 10.775 8.50827 11.9833L10.3416 10.15C10.5666 9.925 10.8999 9.85 11.1916 9.95C12.1249 10.2583 13.1333 10.425 14.1666 10.425C14.6249 10.425 14.9999 10.8 14.9999 11.2583V14.1667C14.9999 14.625 14.6249 15 14.1666 15C6.3416 15 -6.10352e-05 8.65833 -6.10352e-05 0.833333C-6.10352e-05 0.375 0.374939 0 0.833272 0H3.74994C4.20827 0 4.58327 0.375 4.58327 0.833333C4.58327 1.875 4.74994 2.875 5.05827 3.80833C5.14994 4.1 5.08327 4.425 4.84994 4.65833L3.01661 6.49167Z" fill="#AAAAAA"/>
</svg>
