<svg width="24" height="24" viewBox="0 0 24 24" fill="none" xmlns="http://www.w3.org/2000/svg">
<path d="M17.9399 21.05H17.9855L17.9897 21.0047L19.5629 4.15162L19.568 4.09697H19.5131H4.56519H4.51033L4.5154 4.1516L6.08062 21.0047L6.08483 21.05H6.1304H17.9399ZM18.5583 4.92971L17.1665 20.2173H6.89587L5.44204 4.92971H18.5583Z" fill="#333333" stroke="#333333" stroke-width="0.1"/>
<path d="M3.3913 4.92971H20.6087C20.8494 4.92971 21.05 4.74643 21.05 4.51334C21.05 4.28026 20.8494 4.09697 20.6087 4.09697H3.3913C3.15065 4.09697 2.95 4.28026 2.95 4.51334C2.95 4.74643 3.15065 4.92971 3.3913 4.92971Z" fill="#333333" stroke="#333333" stroke-width="0.1"/>
<path d="M15.4278 4.92969H15.4778L15.4778 4.87968L15.4776 3.83186C15.4776 3.83185 15.4776 3.83185 15.4776 3.83184C15.4776 3.33203 15.265 2.85278 14.8885 2.50024C14.5121 2.14779 14.0018 1.95 13.4711 1.95H10.5129C9.40748 1.95 8.5064 2.78909 8.5064 3.83186V4.87969V4.92969H8.5564H15.4278ZM9.38951 3.83189V3.83186C9.38951 3.25527 9.88931 2.78274 10.5134 2.78274H13.4714C14.0936 2.78633 14.5916 3.25706 14.5955 3.83196V4.09695H9.3893L9.38951 3.83189Z" fill="#333333" stroke="#333333" stroke-width="0.1"/>
<path d="M12.4334 7.46598C12.4334 7.36749 12.3818 7.26388 12.3043 7.18603C12.2261 7.10751 12.1161 7.04961 11.9921 7.04961C11.7515 7.04961 11.5508 7.2329 11.5508 7.46598V17.7023C11.5508 17.8008 11.6025 17.9044 11.68 17.9823C11.7582 18.0608 11.8682 18.1187 11.9921 18.1187C12.2328 18.1187 12.4334 17.9354 12.4334 17.7023V7.46598Z" fill="#333333" stroke="#333333" stroke-width="0.1"/>
<path d="M9.38901 7.46598C9.38901 7.36749 9.33738 7.26388 9.25986 7.18603C9.18166 7.10751 9.07168 7.04961 8.9477 7.04961C8.70704 7.04961 8.5064 7.2329 8.5064 7.46598V17.7023C8.5064 17.8008 8.55802 17.9044 8.63555 17.9823C8.71374 18.0608 8.82373 18.1187 8.9477 18.1187C9.18836 18.1187 9.38901 17.9354 9.38901 17.7023V7.46598Z" fill="#333333" stroke="#333333" stroke-width="0.1"/>
<path d="M15.4779 7.46598C15.4779 7.36749 15.4262 7.26388 15.3487 7.18603C15.2705 7.10751 15.1605 7.04961 15.0366 7.04961C14.7959 7.04961 14.5953 7.2329 14.5953 7.46598V17.7023C14.5953 17.8008 14.6469 17.9044 14.7244 17.9823C14.8026 18.0608 14.9126 18.1187 15.0366 18.1187C15.2772 18.1187 15.4779 17.9354 15.4779 17.7023V7.46598Z" fill="#333333" stroke="#333333" stroke-width="0.1"/>
</svg>
