<svg width="17" height="19" viewBox="0 0 17 19" fill="none" xmlns="http://www.w3.org/2000/svg">
<g clip-path="url(#clip0)">
<path d="M8.13992 0.350098C8.59013 0.358244 9.03392 0.458446 9.44396 0.644531C9.854 0.830616 10.2216 1.09864 10.5242 1.43213C10.8268 1.76561 11.0579 2.15749 11.2033 2.58365C11.3488 3.0098 11.4055 3.46121 11.3699 3.9101C11.3726 4.33717 11.2903 4.76051 11.1278 5.15546C10.9653 5.55042 10.7258 5.9091 10.4234 6.21062C10.1209 6.51215 9.76148 6.7505 9.36602 6.91179C8.97057 7.07308 8.54698 7.15409 8.11992 7.1501V7.1501C7.69369 7.15276 7.27118 7.07076 6.87689 6.90887C6.48259 6.74699 6.12436 6.50844 5.82297 6.20705C5.52158 5.90565 5.28302 5.54742 5.12114 5.15313C4.95925 4.75884 4.87726 4.33632 4.87992 3.9101C4.84432 3.46038 4.90131 3.00815 5.04736 2.58133C5.19341 2.15451 5.42543 1.76217 5.72907 1.42854C6.03271 1.09491 6.40153 0.827075 6.81275 0.641586C7.22397 0.456098 7.66885 0.356893 8.11992 0.350098H8.13992Z" stroke="#707070" stroke-width="0.8" stroke-linecap="round" stroke-linejoin="round"/>
<path d="M8.14012 18.0601C12.9901 18.0601 15.9401 16.6701 15.9401 15.0601C15.9401 11.9101 12.4501 9.3501 8.14012 9.3501C3.83012 9.3501 0.370117 11.9401 0.370117 15.0901C0.370117 16.6701 3.30012 18.0601 8.14012 18.0601Z" stroke="#707070" stroke-width="0.8" stroke-linecap="round" stroke-linejoin="round"/>
</g>
<defs>
<clipPath id="clip0">
<rect width="16.3" height="18.41" fill="white"/>
</clipPath>
</defs>
</svg>
